<svg xmlns="http://www.w3.org/2000/svg" viewBox="0 0 498.65 679.37"><defs><style>.cls-1{fill:#fff;}</style></defs><g id="Layer_2" data-name="Layer 2"><g id="Layer_1-2" data-name="Layer 1"><rect class="cls-1" x="110.94" y="517" width="11.54" height="56.73"/><path class="cls-1" d="M65.05,517v56.72H76.51V544.15c0-9.5,5-16.39,11.95-16.39a13.46,13.46,0,0,1,6,1.38L99,531.36l2.88-11.26-3-1.49a22.76,22.76,0,0,0-10.21-2.51,20.42,20.42,0,0,0-12.16,4V517Z"/><path class="cls-1" d="M26.26,516.1a36.51,36.51,0,0,0-14.81,3.13V517H0v69.61H11.45V571.14a36.42,36.42,0,0,0,14.81,2.94,29,29,0,1,0,0-58ZM26,562.69c-5.81,0-11-1.6-14.54-4.53V532.21c3.75-3.09,8.77-4.72,14.54-4.72a17.6,17.6,0,1,1,0,35.2Z"/><path class="cls-1" d="M26.24,608.89A36.41,36.41,0,0,0,11.45,612v-2.23H0v69.58H11.45V663.91a36.33,36.33,0,0,0,14.79,2.94,29,29,0,1,0,0-58ZM26,655.46c-5.81,0-11-1.6-14.53-4.53V625c3.75-3.09,8.76-4.72,14.53-4.72a17.59,17.59,0,1,1,0,35.18Z"/><path class="cls-1" d="M91.16,608.89A34.77,34.77,0,0,0,76.45,612V596.73H65v69.76H76.45V624.83a22.9,22.9,0,0,1,14.44-4.55c6.59,0,13.63,3.71,13.63,14.13v32.08H116V634.41C116,618.91,106.23,608.89,91.16,608.89Z"/><path class="cls-1" d="M156.1,608.89c-16.69,0-30.26,13-30.26,29s13.57,28.93,30.26,28.93,30.17-13,30.17-28.93S172.73,608.89,156.1,608.89Zm0,46.57c-10.37,0-18.81-7.87-18.81-17.54s8.44-17.64,18.81-17.64,18.71,7.91,18.71,17.64S166.42,655.46,156.1,655.46Z"/><path class="cls-1" d="M422.18,620.28a15.75,15.75,0,0,1,12,5.64l2.74,3.23,8.47-7.56-2.6-3.07a26.75,26.75,0,0,0-20.63-9.63c-16.68,0-30.26,13-30.26,29s13.58,28.93,30.26,28.93a27.05,27.05,0,0,0,20.53-9.72l2.46-2.88-8.09-8.15-2.9,3.47a15.71,15.71,0,0,1-12,5.89c-10.37,0-18.8-7.87-18.8-17.54S411.81,620.28,422.18,620.28Z"/><rect class="cls-1" x="369.09" y="609.79" width="11.54" height="56.71"/><path class="cls-1" d="M157.82,562.78c-6.79,0-13-2.14-17.15-3.76l-3.61-1.42-4.68,10.09,3.93,1.66a54.41,54.41,0,0,0,21.42,4.73c17.06,0,23.14-9.23,23.14-17.88,0-11.55-10.7-15.21-22.25-17.44-11.14-2.21-12.57-4.24-12.57-5.77,0-3.14,4.51-5.59,10.25-5.59a35.22,35.22,0,0,1,14.8,3l4,1.81,4.15-10.45-3.67-1.59a48.31,48.31,0,0,0-19.23-4c-12.32,0-21.61,7.26-21.61,16.89,0,11,10.91,14.73,21.57,16.9,9.16,1.91,13.24,3.89,13.24,6.4C169.5,560.42,165.25,562.78,157.82,562.78Z"/><path class="cls-1" d="M330.92,608.89a34.55,34.55,0,0,0-14.7,3.08v-2.18H304.77v56.7h11.45V624.83a22.9,22.9,0,0,1,14.44-4.55c8.4,0,13.63,5.41,13.63,14.13v32.08h11.45V634.41C355.74,618.91,346,608.89,330.92,608.89Z"/><path class="cls-1" d="M476.41,631.54c-11.13-2.21-12.55-4.24-12.55-5.76,0-3.14,4.5-5.59,10.24-5.59a35.16,35.16,0,0,1,14.78,2.95l3.95,1.81L497,614.5l-3.67-1.59a48.25,48.25,0,0,0-19.21-4c-12.32,0-21.6,7.26-21.6,16.89,0,11,10.9,14.72,21.56,16.89,9.15,1.91,13.23,3.88,13.23,6.39,0,4.13-4.26,6.49-11.67,6.49-6.79,0-13-2.14-17.14-3.76l-3.62-1.42-4.67,10.09,3.93,1.66a54.4,54.4,0,0,0,21.41,4.73c17,0,23.12-9.23,23.12-17.88C498.65,637.43,488,633.77,476.41,631.54Z"/><path class="cls-1" d="M340.94,573.72V517H329.57v2.27a36.53,36.53,0,0,0-14.89-3.17,29,29,0,1,0,0,58,36.16,36.16,0,0,0,14.89-3v2.67Zm-26-11a17.61,17.61,0,1,1,0-35.2,23,23,0,0,1,14.62,4.72v25.93C325.92,561.08,320.75,562.69,315,562.69Z"/><path class="cls-1" d="M211.78,596.73H200.24v13.06h-8.83V621h8.83v27.71c0,12.53,8.75,18.14,17.41,18.14a37,37,0,0,0,9.62-1.21l3.07-.82V653.25l-5.24,1.47a25.67,25.67,0,0,1-6.82.74c-5.39,0-6.5-3.42-6.5-8.55V621h18.73V609.79H211.78Z"/><path class="cls-1" d="M192,517v56.72h11.46V532a20.81,20.81,0,0,1,13.64-4.49c7.37,0,12,5.42,12,14.14v32.09H240.5V541.63a29.5,29.5,0,0,0-1.56-9.9,17,17,0,0,1,11.55-4.24c8.42,0,13.65,5.42,13.65,14.14v32.09h11.45V541.63c0-15.51-9.78-25.53-24.92-25.53a26.88,26.88,0,0,0-17.42,6,22.39,22.39,0,0,0-16-6,32,32,0,0,0-13.82,3V517Z"/><path class="cls-1" d="M264.57,608.89c-16.68,0-30.25,13-30.25,29s13.57,28.93,30.25,28.93,30.17-13,30.17-28.93S281.21,608.89,264.57,608.89Zm0,46.57c-10.37,0-18.8-7.87-18.8-17.54s8.43-17.64,18.8-17.64,18.72,7.91,18.72,17.64S274.89,655.46,264.57,655.46Z"/><path class="cls-1" d="M388,439.69a138.52,138.52,0,0,0,15.3-11.13A248.27,248.27,0,0,0,469,349.87c22.08-39.36,33.15-84.59,26.68-135.57C476.37,62.12,319-36.27,173.65,12.65,71.81,46.92,4.31,140.35,3.93,248.08c-.24,70.75-.06,141.51-.05,212.26,0,2.21.19,4.42.31,7.06H59.4v-8.61c0-71,.07-142-.12-212.94A183.92,183.92,0,0,1,80,160.42C138.86,45.33,290.88,19.76,384.15,109.25a178.39,178.39,0,0,1,49.67,83.35c-.84-1-1.7-2-2.53-3.06-44.85-56.3-103-81-174.33-72.12C169.6,128.32,99.88,205.57,98.2,293.79c-1.08,56.71-.27,113.47-.28,170.2a28.26,28.26,0,0,0,.44,3.48h55.08v-7.16c0-53.35-.23-106.7.11-160A129.71,129.71,0,0,1,247,176.2c54.86-16.08,113.77,6.08,145.21,54.69A125.23,125.23,0,0,1,412,287.46c-7.24-8.46-13.33-17.24-21-24.27-37.09-34-80.18-43.11-126.48-24.17-47.16,19.28-72.06,56.81-73.88,107.91-1.37,38.38-.25,76.85-.41,115.28,0,4.43,1.39,5.9,5.8,5.84,15.1-.21,30.2-.07,45.3-.14a29,29,0,0,0,4.68-.81v-7.83c0-36.16-.08-72.33,0-108.5.1-35.78,26.7-64.13,60.84-65.08a63.26,63.26,0,1,1,2.51,126.48c-8.5.1-17,0-25.74,0v55.36c24.52,1.48,68.58-5.48,104-27.65v0Z"/></g></g></svg>